<?xml version="1.0" standalone="no"?>
<!DOCTYPE svg PUBLIC "-//W3C//DTD SVG 20010904//EN"
 "http://www.w3.org/TR/2001/REC-SVG-20010904/DTD/svg10.dtd">
<svg version="1.0" xmlns="http://www.w3.org/2000/svg"
 width="1080.000000pt" height="1080.000000pt" viewBox="0 0 1080.000000 1080.000000"
 preserveAspectRatio="xMidYMid meet">
<metadata>
Created by potrace 1.11, written by Peter Selinger 2001-2013
</metadata>
<g transform="translate(0.000000,1080.000000) scale(0.100000,-0.100000)"
fill="#000000" stroke="none">
<path d="M0 8476 l0 -2323 66 -6 c72 -7 184 -35 184 -47 0 -19 -209 -104 -234
-94 -14 6 -16 -11 -16 -165 l0 -170 45 30 c144 97 276 124 605 123 340 0 781
-53 1150 -139 58 -13 120 -27 137 -30 31 -6 62 -38 106 -107 26 -42 67 -57
182 -67 68 -6 119 -16 145 -29 l39 -19 -6 48 c-5 43 -3 48 21 64 22 15 37 16
84 10 94 -14 123 -11 144 14 38 47 16 100 -83 201 -100 102 -129 142 -118 162
10 18 21 10 117 -86 176 -173 261 -232 382 -265 95 -27 151 -27 174 -2 15 17
16 22 3 54 -28 66 -109 177 -248 338 -126 148 -139 166 -139 201 0 27 -4 38
-15 38 -22 0 -48 46 -43 75 4 18 -1 29 -17 39 -11 8 -27 34 -34 57 -7 24 -22
62 -33 83 -14 28 -23 74 -30 155 -5 64 -18 143 -28 176 -22 72 -39 150 -130
610 -83 420 -94 504 -87 615 13 176 58 273 375 805 123 208 279 390 403 470
40 26 49 38 72 105 54 151 208 381 357 531 47 47 166 145 265 218 266 197 293
219 375 295 147 136 287 238 438 317 l73 39 -2341 0 -2340 0 0 -2324z"/>
<path d="M6820 10793 c83 -15 353 -91 520 -146 235 -78 371 -135 550 -231 74
-40 198 -106 275 -146 171 -89 226 -124 296 -185 104 -92 179 -218 179 -300 0
-40 -47 -191 -79 -252 -45 -88 -187 -125 -408 -104 -72 6 -144 16 -162 21 -17
5 -29 5 -26 0 3 -4 17 -11 32 -15 45 -11 239 -111 315 -162 86 -57 209 -171
267 -247 43 -56 61 -64 166 -79 33 -4 30 -43 -5 -83 -18 -21 -29 -43 -26 -51
3 -8 6 -17 6 -19 0 -2 10 -4 23 -4 36 0 65 27 97 90 17 33 39 64 51 70 31 17
75 3 108 -35 38 -44 54 -96 49 -157 -6 -57 -23 -78 -138 -171 -41 -33 -81 -67
-87 -76 -24 -28 -15 -83 27 -166 35 -71 120 -318 120 -350 0 -7 15 -59 34
-116 128 -387 177 -756 130 -971 -35 -158 -17 -281 59 -418 55 -99 165 -267
215 -332 27 -35 72 -101 101 -148 29 -47 77 -121 108 -165 111 -159 143 -270
108 -374 -23 -71 -66 -101 -197 -136 -147 -40 -175 -53 -198 -90 -34 -56 -27
-109 30 -222 54 -106 60 -143 33 -200 -19 -41 -96 -105 -170 -141 -29 -15 -53
-29 -53 -33 0 -4 24 -16 52 -27 48 -18 55 -25 85 -83 18 -35 37 -78 42 -95 13
-47 -16 -100 -84 -154 -86 -67 -125 -115 -125 -152 0 -17 12 -56 27 -87 40
-83 43 -174 9 -292 -15 -51 -39 -115 -54 -142 -54 -101 -167 -175 -322 -213
-78 -19 -247 -18 -301 2 -24 8 -123 28 -219 44 -96 15 -223 38 -282 49 -130
25 -342 51 -420 51 -62 0 -167 -20 -237 -45 -54 -19 -123 -70 -211 -156 -212
-206 -350 -449 -431 -755 -28 -107 -32 -138 -37 -301 -3 -114 0 -206 7 -250
19 -110 52 -210 80 -241 19 -22 86 -55 246 -122 121 -51 249 -105 285 -121 36
-15 238 -102 450 -193 654 -279 867 -380 1044 -491 323 -202 627 -505 792
-790 l49 -84 593 -1 592 0 0 5400 0 5400 -2002 -1 c-1102 -1 -1992 -4 -1978
-6z"/>
<path d="M8510 7224 c-41 -8 -100 -19 -130 -23 -62 -10 -308 -89 -358 -115
-18 -9 -30 -21 -27 -26 3 -6 0 -7 -8 -5 -7 3 -40 -11 -73 -31 -32 -20 -50 -33
-39 -29 90 31 308 77 410 86 104 8 135 7 239 -10 149 -25 157 -31 130 -95 -5
-15 -4 -17 6 -11 9 6 11 4 6 -4 -5 -7 -11 -10 -14 -7 -8 8 -63 -45 -56 -55 2
-4 -1 -11 -7 -15 -8 -4 -9 -3 -5 4 11 19 0 14 -59 -23 -33 -21 -53 -40 -49
-47 4 -7 3 -8 -5 -4 -15 10 -66 -23 -116 -73 -27 -29 -48 -41 -67 -41 -23 0
-31 -8 -55 -57 l-28 -58 -47 3 c-26 2 -64 -2 -85 -9 l-37 -12 28 -24 c16 -13
35 -22 43 -19 8 3 11 1 8 -4 -4 -6 13 -19 37 -29 49 -21 171 -34 161 -17 -4 6
3 2 15 -8 24 -21 29 -32 10 -20 -8 5 -9 2 -5 -10 4 -10 7 -22 7 -27 0 -6 9 -5
21 1 34 19 49 5 49 -45 0 -40 -4 -47 -32 -65 -21 -13 -53 -20 -88 -21 l-55 -1
40 -9 c100 -20 311 -4 345 28 11 10 17 47 22 136 3 67 7 127 8 132 2 15 -5 44
-13 51 -3 4 11 28 32 53 21 25 40 51 41 56 1 6 4 12 7 15 4 3 3 -1 -1 -8 -15
-25 99 16 116 42 4 6 -5 24 -21 41 -37 40 -43 61 -23 77 13 11 14 11 8 -1 -6
-9 -5 -12 5 -9 8 3 13 10 12 15 -1 6 17 28 40 49 l42 39 -40 -42 c-21 -24 -34
-43 -28 -43 18 0 85 81 79 96 -3 7 0 13 6 11 16 -3 38 79 31 114 -7 35 -33 51
-118 68 -33 7 -89 21 -124 32 -73 22 -90 22 -191 3z m411 -81 c13 -16 12 -17
-3 -4 -10 7 -18 15 -18 17 0 8 8 3 21 -13z m-130 -330 c13 -16 12 -17 -3 -4
-10 7 -18 15 -18 17 0 8 8 3 21 -13z m-371 -37 c0 -2 -8 -10 -17 -17 -16 -13
-17 -12 -4 4 13 16 21 21 21 13z m240 -99 c0 -2 -10 -12 -22 -23 l-23 -19 19
23 c18 21 26 27 26 19z m-579 -124 c13 -16 12 -17 -3 -4 -10 7 -18 15 -18 17
0 8 8 3 21 -13z m539 -237 c0 -2 -8 -10 -17 -17 -16 -13 -17 -12 -4 4 13 16
21 21 21 13z"/>
<path d="M1 6044 c0 -11 3 -14 6 -6 3 7 2 16 -1 19 -3 4 -6 -2 -5 -13z"/>
<path d="M1313 5693 c9 -2 25 -2 35 0 9 3 1 5 -18 5 -19 0 -27 -2 -17 -5z"/>
<path d="M915 5674 c-49 -7 -153 -27 -230 -43 -77 -16 -167 -35 -200 -42 -33
-6 -139 -35 -235 -64 -97 -29 -193 -56 -213 -60 -34 -7 -37 -10 -37 -42 0 -29
3 -34 18 -30 66 22 213 60 297 77 105 22 220 53 370 100 144 45 314 88 395 99
41 6 86 13 100 15 14 2 -20 3 -75 4 -55 0 -140 -6 -190 -14z"/>
<path d="M0 5208 l0 -143 63 -20 c64 -21 75 -35 35 -46 -30 -8 -13 -15 72 -29
77 -13 157 -38 166 -51 3 -5 -10 -16 -28 -24 -18 -8 -26 -14 -17 -15 17 0 194
-48 374 -102 359 -106 566 -184 754 -284 105 -55 295 -176 306 -194 13 -21
-317 -152 -552 -220 -144 -41 -358 -92 -544 -130 -96 -20 -157 -21 -201 -5
-12 5 -17 0 -20 -17 -3 -21 -10 -24 -69 -30 -41 -4 -86 -16 -120 -33 -56 -29
-149 -39 -197 -22 l-22 8 0 -445 c0 -350 3 -446 13 -446 6 -1 25 -7 42 -14
l29 -12 -42 -24 -42 -24 0 -1164 0 -1164 92 80 c331 283 711 513 1368 827 107
51 312 150 455 220 143 70 303 147 355 173 163 79 399 210 494 275 114 77 300
265 673 677 189 209 415 426 573 549 53 41 88 87 76 99 -3 3 -38 -17 -77 -44
-38 -27 -83 -57 -100 -68 -28 -17 -59 -16 -59 3 0 5 40 39 89 75 86 64 88 67
77 92 -11 26 -12 26 -96 20 -75 -5 -96 -11 -175 -50 -49 -25 -127 -75 -173
-113 -137 -112 -122 -104 -169 -91 -67 19 -127 -14 -497 -266 -127 -86 -236
-142 -236 -121 0 22 -11 20 -137 -35 -166 -73 -220 -83 -468 -85 -227 -2 -314
-14 -630 -80 -282 -60 -448 -129 -535 -221 -30 -33 -84 -76 -120 -97 -36 -21
-103 -72 -150 -113 -47 -41 -107 -90 -135 -109 -27 -19 -102 -87 -165 -150
-78 -78 -122 -115 -137 -115 -13 0 -23 3 -23 6 0 10 35 66 112 182 55 82 65
104 53 108 -14 6 -14 9 2 27 21 23 183 145 230 172 32 19 43 35 23 35 -5 0 0
16 12 35 45 77 -11 55 -106 -41 -65 -65 -78 -74 -110 -74 -20 0 -36 3 -36 7 0
4 23 47 51 95 31 55 48 95 45 106 -4 12 4 28 26 48 38 34 104 84 113 84 11 0
165 93 176 107 16 18 -127 -47 -216 -99 -38 -22 -73 -42 -76 -44 -3 -2 -14 3
-24 10 -23 17 -13 35 44 76 27 20 51 30 63 27 13 -4 45 12 95 45 101 68 273
148 413 192 141 45 430 103 730 146 270 39 480 80 615 121 98 30 185 78 345
191 30 21 91 63 136 93 148 100 264 235 313 366 24 61 23 60 13 77 -6 9 -30
-9 -83 -61 -207 -205 -458 -384 -714 -507 -126 -61 -320 -116 -480 -135 -110
-13 -586 -55 -617 -55 -23 1 25 30 49 30 14 0 23 6 23 15 0 8 14 30 31 50 24
27 39 35 65 35 23 0 37 6 44 20 6 11 19 20 30 20 25 0 50 10 50 20 0 20 -44
20 -106 1 -113 -36 -132 -28 -106 44 16 46 21 50 55 55 28 4 42 13 56 36 21
34 150 111 534 319 120 64 215 120 213 123 -3 3 -24 -3 -45 -13 -49 -22 -70
-16 -64 18 4 20 20 30 105 61 55 21 155 63 222 95 66 32 143 66 170 76 52 20
47 34 -6 16 -38 -13 -88 -14 -108 -1 -13 8 -12 11 5 25 11 9 35 23 53 31 26
12 32 20 33 47 2 57 4 62 24 66 11 2 31 8 45 13 l25 10 -23 9 c-13 5 -22 15
-20 21 8 24 72 59 145 81 70 20 80 36 24 37 -16 0 -21 4 -18 14 3 8 -1 20 -9
26 -22 19 -17 47 16 96 37 53 51 91 94 252 29 107 31 124 18 131 -11 6 -32 -6
-76 -43 -111 -94 -242 -156 -485 -227 -144 -43 -268 -63 -391 -63 -96 -1 -156
27 -260 118 -81 71 -242 164 -382 221 -321 129 -896 234 -1290 235 l-58 0 0
-142z m610 -1463 c9 -8 34 -21 56 -28 21 -8 39 -20 39 -28 0 -26 -87 -58 -200
-74 -60 -8 -135 -20 -165 -25 -60 -10 -76 -3 -65 29 9 29 50 55 130 81 39 13
86 31 105 41 42 23 78 24 100 4z"/>
<path d="M0 3884 c0 -11 6 -14 23 -9 38 12 43 25 9 25 -22 0 -32 -5 -32 -16z"/>
<path d="M750 2430 c-14 -11 -20 -20 -15 -20 6 0 21 9 35 20 14 11 21 20 15
20 -5 0 -21 -9 -35 -20z"/>
</g>
</svg>
