<?xml version="1.0" encoding="utf-8"?>
<!-- Generator: Adobe Illustrator 24.0.1, SVG Export Plug-In . SVG Version: 6.00 Build 0)  -->
<svg version="1.1" id="Calque_1" xmlns="http://www.w3.org/2000/svg" xmlns:xlink="http://www.w3.org/1999/xlink" x="0px" y="0px"
	 width="14.1px" height="121px" viewBox="0 0 14.1 121" style="enable-background:new 0 0 14.1 121;" xml:space="preserve">
<style type="text/css">
	.st0{fill:#253670;}
</style>
<path class="st0" d="M7.1,12.1c-0.6,0-1-0.4-1-1V1c0-0.6,0.5-1,1-1s1,0.4,1,1v10.1C8.1,11.7,7.6,12.1,7.1,12.1z"/>
<path class="st0" d="M7.1,36.3c-0.6,0-1-0.5-1-1V25.2c0-0.6,0.4-1,1-1s1,0.5,1,1v10.1C8.1,35.9,7.6,36.3,7.1,36.3z"/>
<path class="st0" d="M7.1,60.6c-0.6,0-1-0.5-1-1V49.4c0-0.6,0.4-1,1-1s1,0.5,1,1v10.1C8.1,60.1,7.6,60.6,7.1,60.6z"/>
<path class="st0" d="M7.1,84.8c-0.6,0-1-0.4-1-1V73.7c0-0.6,0.4-1,1-1s1,0.4,1,1v10.1C8.1,84.3,7.6,84.8,7.1,84.8z"/>
<path class="st0" d="M7.1,109c-0.6,0-1-0.4-1-1V97.9c0-0.6,0.4-1,1-1s1,0.4,1,1V108C8.1,108.5,7.6,109,7.1,109z"/>
<path class="st0" d="M7.1,61l-6.8-6.8c-0.4-0.4-0.4-1,0-1.4c0.4-0.4,1-0.4,1.4,0l5.3,5.3l5.3-5.3c0.4-0.4,1-0.4,1.4,0
	c0.4,0.4,0.4,1,0,1.4L7.1,61z"/>
</svg>
