<?xml version="1.0" encoding="utf-8"?>
<!-- Generator: Adobe Illustrator 23.1.0, SVG Export Plug-In . SVG Version: 6.00 Build 0)  -->
<svg version="1.1" id="Calque_1" xmlns="http://www.w3.org/2000/svg" xmlns:xlink="http://www.w3.org/1999/xlink" x="0px" y="0px"
	 viewBox="0 0 25 25.9" style="enable-background:new 0 0 25 25.9;" xml:space="preserve">
<style type="text/css">
	.st0{opacity:0.5;}
	.st1{fill:#008C91;}
</style>
<g class="st0">
	<path class="st1" d="M25,3.2c0,12.5-10.1,22.6-22.6,22.6c-0.6,0-1-0.4-1.1-0.9L0,19.9c-0.1-0.6,0.2-1.1,0.7-1.3l5.5-2.3
		c0.5-0.2,1-0.1,1.4,0.3l2.4,3c3.8-1.8,6.9-4.9,8.6-8.6l-3-2.4c-0.4-0.3-0.5-0.9-0.3-1.4l2.3-5.5c0.2-0.5,0.8-0.8,1.3-0.7l5.1,1.2
		C24.6,2.2,25,2.7,25,3.2z"/>
</g>
</svg>
