<?xml version="1.0" encoding="utf-8"?>
<!-- Generator: Adobe Illustrator 23.1.0, SVG Export Plug-In . SVG Version: 6.00 Build 0)  -->
<svg version="1.1" id="Calque_1" xmlns="http://www.w3.org/2000/svg" xmlns:xlink="http://www.w3.org/1999/xlink" x="0px" y="0px"
	 viewBox="0 0 25 25.9" style="enable-background:new 0 0 25 25.9;" xml:space="preserve">
<style type="text/css">
	.st0{opacity:0.5;}
	.st1{fill:#008C91;}
</style>
<g class="st0">
	<path class="st1" d="M20.5,2.4v20.9c0,1.3-1.1,2.4-2.4,2.4H6.8c-1.3,0-2.4-1.1-2.4-2.4V2.4C4.4,1.1,5.4,0,6.8,0h11.3
		C19.4,0,20.5,1.1,20.5,2.4z M18.1,3c0-0.3-0.3-0.6-0.6-0.6H7.4C7,2.4,6.8,2.7,6.8,3v15.7c0,0.3,0.3,0.6,0.6,0.6h10.1
		c0.3,0,0.6-0.3,0.6-0.6V3z M14,22.6c0-0.9-0.7-1.6-1.6-1.6s-1.6,0.7-1.6,1.6s0.7,1.6,1.6,1.6S14,23.4,14,22.6z"/>
</g>
</svg>
